<svg width="18" height="17" viewBox="0 0 18 17" fill="none" xmlns="http://www.w3.org/2000/svg">
<path d="M11.7969 2.17176H13.9062M14.975 14.416C15.1916 14.1523 15.3125 13.7944 15.3125 13.4218V4.98426C15.3125 4.61161 15.1916 4.25301 14.975 3.99005C14.7605 3.72567 14.468 3.57801 14.1629 3.57801H7.84812C6.63523 3.57801 6.40039 2.3609 5.34711 2.19005C5.16148 2.15981 4.96883 2.17176 4.78109 2.17176C4.11102 2.17176 3.77633 2.17176 3.51266 2.28356C3.17725 2.42613 2.91029 2.69333 2.76805 3.02887C2.65625 3.29114 2.65625 3.62583 2.65625 4.2959V13.4218C2.65625 13.7944 2.77719 14.153 2.99375 14.416C3.20891 14.6797 3.50141 14.828 3.80656 14.828H14.1622C14.4673 14.828 14.7591 14.6804 14.975 14.416Z" stroke="#202020" stroke-width="1.25" stroke-linecap="round" stroke-linejoin="round"/>
<path d="M10.0391 12.0156C10.785 12.0156 11.5004 11.7193 12.0278 11.1919C12.5552 10.6644 12.8516 9.94905 12.8516 9.20312C12.8516 8.4572 12.5552 7.74183 12.0278 7.21439C11.5004 6.68694 10.785 6.39063 10.0391 6.39062C9.29314 6.39063 8.57777 6.68694 8.05032 7.21439C7.52288 7.74183 7.22656 8.4572 7.22656 9.20312C7.22656 9.94905 7.52288 10.6644 8.05032 11.1919C8.57777 11.7193 9.29314 12.0156 10.0391 12.0156Z" stroke="#202020" stroke-width="1.25" stroke-linecap="round" stroke-linejoin="round"/>
</svg>
