<svg width="39" height="53" viewBox="0 0 39 53" fill="none" xmlns="http://www.w3.org/2000/svg">
<path d="M37.96 5.96185C38.0857 9.06067 36.1512 11.0648 32.2069 12.6142C27.3833 14.5173 22.4089 16.454 17.535 18.3403C12.1587 20.4118 10.8021 22.9548 14.671 26.3062C13.4149 28.1588 9.04346 27.8051 6.63165 27.5525C3.91837 26.441 3.13955 24.0327 3.29029 22.0622C3.5164 19.2497 5.72723 16.5888 8.76711 14.6857C18.4646 9.78485 28.1872 4.884 37.9349 0C37.9349 1.98728 37.9349 3.97457 37.96 5.96185Z" fill="#756EF3"/>
<path d="M14.6963 26.3061C14.6963 26.3061 14.1184 25.9861 13.1386 25.4135C8.54111 22.6684 2.56184 18.4243 8.76722 14.6855C6.70713 15.7297 4.99877 16.976 3.54163 18.3064C-0.854895 22.2473 -0.000709431 28.5965 0.200275 33.3458C0.300767 35.6194 4.32045 36.1246 6.85787 35.2152C9.67165 34.2047 12.6613 33.0932 15.3997 32.0995C19.5701 30.5838 17.5352 27.8218 14.6963 26.3061Z" fill="#756EF3"/>
<path d="M0.287484 47.0379C0.161869 43.9391 2.09634 41.935 6.04065 40.3856C10.8643 38.4825 15.8386 36.5457 20.7125 34.6595C26.0888 32.588 27.4454 30.045 23.5765 26.6935C24.8327 24.841 29.2041 25.1946 31.6159 25.4473C34.3292 26.5588 35.108 28.9671 34.9572 30.9376C34.7311 33.7332 32.5203 36.411 29.4804 38.3141C19.7829 43.2149 10.0603 48.1158 0.312609 52.9998C0.312609 51.0125 0.312607 49.0252 0.287484 47.0379Z" fill="#756EF3"/>
<path d="M23.5519 26.7101C23.5519 26.7101 24.1297 27.0301 25.1095 27.6027C29.707 30.3478 35.6863 34.575 29.4809 38.3307C31.541 37.2865 33.2494 36.0402 34.7065 34.7098C39.103 30.7689 38.2488 24.4197 38.0478 19.6704C37.9474 17.3968 33.9277 16.8916 31.3903 17.801C28.5765 18.8115 25.5868 19.923 22.8736 20.9167C18.678 22.4155 20.713 25.1775 23.5519 26.7101Z" fill="#756EF3"/>
</svg>
